# xmcd CD database file
#
# Track frame offsets:
#	150
#	16373
#	30011
#	48410
#	64351
#	80503
#	102846
#	116441
#	130062
#	148066
#	168309
#	184682
#	200458
#	215967
#	231766
#	247995
#	266361
#	280319
#	298023
#	315596
#
# Disc length: 4416 seconds
#
# Revision: 0
# Processed by: cddbd v1.5.2PL0 Copyright (c) Steve Scherf et al.
# Submitted via: CDex 1.51
#
DISCID=20113e14
DTITLE=Rick Tippe - Rick Tippe CD 2
DYEAR=2001
DGENRE=Country
TTITLE0=Two Broken Hearted Fools     
TTITLE1=The Wheel Of Love
TTITLE2=Copper Prairi Sky
TTITLE3=Love Don't Get Better
TTITLE4=Fields Of Forever
TTITLE5=Bad Heart Day  ( Clubmix )
TTITLE6=Is A Lifetime Ride
TTITLE7=More Where That Came From
TTITLE8=Saddle Up
TTITLE9=Shiver' n' Shake
TTITLE10=Texas Is Where It's At
TTITLE11=The Real Thing
TTITLE12=Triple Treat
TTITLE13=Turbo Twang
TTITLE14=Two Broken Hearted Fools
TTITLE15=When You Say Jump
TTITLE16=You're All I Need
TTITLE17=You're Killin' Me
TTITLE18=L.O.V.E.
TTITLE19=Hollywood Heart
EXTD=YEAR: 2001
EXTT0=
EXTT1=
EXTT2=
EXTT3=
EXTT4=
EXTT5=
EXTT6=
EXTT7=
EXTT8=
EXTT9=
EXTT10=
EXTT11=
EXTT12=
EXTT13=
EXTT14=
EXTT15=
EXTT16=
EXTT17=
EXTT18=
EXTT19=
PLAYORDER=
